<svg width="16" height="16" viewBox="0 0 16 16" fill="none" xmlns="http://www.w3.org/2000/svg"><g clip-path="url(#clip0_3881_6538)"><path d="M10.037 5.82473C8.71218 5.19113 7.04925 5.13673 6.06472 6.33353C5.28392 7.28286 5.22952 8.62259 5.98472 9.62526C6.02632 9.67966 6.01672 9.69033 5.95805 9.65619C1.14738 6.87006 3.66578 -0.0579383 9.16978 0.931928C15.7586 2.0018 17.4567 10.7421 11.7426 14.2002C14.15 11.5623 13.461 7.51966 10.037 5.82473Z" fill="white"/><path d="M4.32935 1.91406C1.60722 4.67886 2.99709 9.25486 6.55442 10.4719C8.26109 11.0863 10.1811 10.4698 10.5672 8.52633C10.7155 7.77646 10.548 7.07886 10.0659 6.43673C10.0403 6.4026 10.0467 6.39513 10.084 6.41646C11.8024 7.369 12.8787 9.20793 12.627 11.1834C11.6702 16.9807 4.12775 15.9717 1.80348 11.6463C-0.235982 8.27246 1.13788 3.609 4.32935 1.91406Z" fill="white"/></g><defs><clipPath id="clip0_3881_6538"><rect width="16" height="16" fill="white"/></clipPath></defs></svg>