<svg width="16" height="16" viewBox="0 0 16 16" fill="none" xmlns="http://www.w3.org/2000/svg"><g clip-path="url(#clip0_3881_6555)"><path fill-rule="evenodd" clip-rule="evenodd" d="M3.66204 14.2924C2.9207 13.3251 2.9227 11.4504 3.60804 9.31974L0.570036 7.56641C0.412568 7.47783 0.278819 7.35254 0.18016 7.20119C0.081502 7.04984 0.0208525 6.8769 0.00336888 6.69707C-0.00816821 6.55664 0.010004 6.41535 0.0567022 6.28241C0.239345 5.76067 0.470815 5.25732 0.748035 4.77908C3.06537 0.765742 8.02537 -0.707591 11.8274 1.48708C12.134 1.66441 12.374 1.93374 12.548 2.27641C13.0714 3.30641 13.0047 5.00707 12.392 6.91241L15.43 8.66641C15.656 8.79707 15.8274 8.99441 15.9207 9.22107C16.0178 9.45288 16.0258 9.71235 15.9434 9.94974C15.7609 10.4715 15.5294 10.9749 15.252 11.4531C12.9347 15.4664 7.9747 16.9397 4.1727 14.7451C3.9741 14.6293 3.80051 14.4759 3.66204 14.2924ZM11.0594 9.88241C9.67737 12.2764 7.18737 13.4264 5.49737 12.4504C4.6527 11.9631 4.16804 11.0357 4.06737 9.93174C4.00404 9.24174 4.09137 8.48307 4.33404 7.71841C4.4787 7.26241 4.6787 6.80507 4.93537 6.35907L4.9407 6.34974C6.3227 3.95641 8.8127 2.80641 10.5027 3.78174C10.9247 4.02574 11.256 4.37841 11.496 4.80841C12.1534 5.98974 12.1107 7.75174 11.306 9.41774C11.232 9.57107 11.1514 9.72241 11.0647 9.87307L11.0594 9.88241Z" fill="white"/></g><defs><clipPath id="clip0_3881_6555"><rect width="16" height="16" fill="white"/></clipPath></defs></svg>