<svg width="16" height="16" viewBox="0 0 16 16" fill="none" xmlns="http://www.w3.org/2000/svg"><path fill-rule="evenodd" clip-rule="evenodd" d="M9.96315 12.3916L8.82715 12.095V6.67363L10.0431 6.36563C10.7098 6.19629 11.2698 6.05829 11.2965 6.06363C11.3178 6.06363 11.3338 7.55363 11.3338 9.37829V12.6936L11.2165 12.6883C11.1471 12.6883 10.5818 12.551 9.96315 12.3916Z" fill="white"/><path fill-rule="evenodd" clip-rule="evenodd" d="M4.66699 11.0282C4.66699 9.20416 4.68299 7.70816 4.70966 7.70816C4.73099 7.70282 5.29099 7.84149 5.96299 8.01082L7.17366 8.31816L7.16299 11.0182L7.14699 13.7175L6.05899 13.9988C5.46166 14.1522 4.90166 14.2955 4.82166 14.3115L4.66699 14.3488V11.0282Z" fill="white"/><path fill-rule="evenodd" clip-rule="evenodd" d="M12.8271 8.31798C12.8271 2.29798 12.8325 1.97465 12.9231 2.00131C12.9711 2.01731 13.4458 2.13931 13.9738 2.27198C14.5018 2.40998 15.0245 2.54198 15.1365 2.56864L15.3338 2.62198L15.3231 8.32865L15.3071 14.0406L14.2245 14.3166C13.6325 14.47 13.0725 14.608 12.9871 14.63L12.8271 14.6666V8.31798Z" fill="white"/><path fill-rule="evenodd" clip-rule="evenodd" d="M0.666992 8.33894C0.666992 5.22028 0.682992 2.66895 0.709659 2.66895C0.730992 2.66895 1.29099 2.80695 1.95766 2.97161L3.17366 3.27895V8.33361C3.17366 11.1069 3.16299 13.3829 3.15233 13.3829C3.13633 13.3829 2.57099 13.5263 1.89899 13.6963L0.666992 14.0083V8.33894Z" fill="white"/></svg>