<svg width="235" height="106" viewBox="0 0 235 106" fill="none" xmlns="http://www.w3.org/2000/svg">
  <path
    d="M46.7925 72.0098C47.0282 72.1353 47.2796 72.2451 47.531 72.3863C47.6253 72.4333 47.5625 72.5275 47.531 72.6059C46.3054 75.9474 46.6983 79.2104 48.0024 82.4107C49.2909 85.5639 51.3493 88.1837 53.7533 90.5369C54.319 91.1016 54.9161 91.6193 55.5132 92.1527C55.686 92.3096 55.7174 92.4037 55.5603 92.592C55.0889 93.1254 55.1046 93.1254 54.5704 92.6547C52.1663 90.5369 50.0451 88.1837 48.4267 85.407C46.9182 82.8186 45.9598 80.0418 45.8812 77.0141C45.8341 75.3983 46.0226 73.7982 46.5883 72.2608C46.6826 72.0098 46.6826 72.0098 46.7925 72.0098Z"
    fill="#8E8E93" />
  <path
    d="M51.4024 77.9241C51.4495 79.7439 50.0668 81.2185 48.4955 81.7206C48.2756 81.7833 48.2284 81.6735 48.1656 81.5323C47.7099 80.4655 47.7256 79.4145 48.2127 78.3791C48.6998 77.328 49.4854 76.5436 50.5068 75.9946C50.8053 75.8377 50.931 75.9161 51.041 76.1985C51.261 76.7633 51.4181 77.328 51.4024 77.9398V77.9241Z"
    fill="#8E8E93" />
  <path
    d="M49.7689 67.6977C49.7218 68.9684 49.1561 70.2234 47.7577 71.0235C47.4906 71.1803 47.3492 71.149 47.192 70.8666C45.9193 68.7174 46.6264 66.2073 48.8419 65.0778C49.109 64.9366 49.219 64.9837 49.329 65.2504C49.5961 65.8779 49.7847 66.6937 49.7689 67.6663V67.6977Z"
    fill="#8E8E93" />
  <path
    d="M51.6368 71.9971C51.6683 74.1777 50.0813 75.6523 48.2586 76.0131C48.0386 76.0602 47.9758 75.9347 47.9286 75.7621C47.6458 74.7424 47.7558 73.7698 48.2743 72.8599C48.9028 71.7618 49.8299 71.0088 51.0083 70.5695C51.2912 70.4597 51.4011 70.5382 51.464 70.8048C51.574 71.2441 51.6525 71.6677 51.6368 71.9814V71.9971Z"
    fill="#8E8E93" />
  <path
    d="M49.9722 83.9489C50.0822 82.2075 50.9306 80.9211 52.3919 79.9956C52.5648 79.8858 52.6433 79.9171 52.7376 80.0897C54.1675 82.5213 53.0362 84.9372 50.8521 85.9569C50.6635 86.051 50.5535 86.004 50.4593 85.8157C50.145 85.2353 49.9722 84.6234 49.9722 83.9646V83.9489Z"
    fill="#8E8E93" />
  <path
    d="M44.454 84.579C45.8525 84.6575 47.1723 85.1281 48.0523 86.4616C48.6808 87.4342 48.5708 87.7009 47.4237 87.9362C45.2554 88.3755 43.417 87.3087 42.6942 85.2379C42.5999 84.9712 42.6156 84.83 42.9299 84.7516C43.3855 84.6418 43.8412 84.579 44.4383 84.5634L44.454 84.579Z"
    fill="#8E8E93" />
  <path
    d="M45.0826 78.3488C45.0826 78.6155 45.0354 78.8665 44.9883 79.1175C44.9569 79.3371 44.8626 79.3999 44.6426 79.3842C42.1757 79.0704 40.6359 77.0153 41.0758 74.5524C41.1544 74.0661 41.1858 74.0347 41.6572 74.1916C43.3856 74.772 44.6269 75.8388 45.0197 77.7056C45.0669 77.9095 45.0669 78.1292 45.0826 78.3331V78.3488Z"
    fill="#8E8E93" />
  <path
    d="M48.1002 88.9217C49.7186 88.9531 51.0385 89.5179 51.8556 90.9925C52.0755 91.4004 52.0755 91.4004 51.667 91.62C49.4672 92.7966 47.0003 91.9808 45.979 89.7532C45.869 89.5022 45.9161 89.3924 46.1675 89.2982C46.796 89.0629 47.4403 88.906 48.1159 88.9217H48.1002Z"
    fill="#8E8E93" />
  <path
    d="M55.7231 86.9631C55.6759 88.2808 55.1417 89.3319 54.1989 90.1947C54.0104 90.3673 53.9004 90.2888 53.7747 90.1477C52.8633 89.2221 52.5176 88.1239 52.6748 86.8532C52.8005 85.8022 53.2247 84.8923 53.9318 84.0922C54.0418 83.9667 54.1361 83.8412 54.3246 84.0295C55.1888 84.8452 55.7073 85.8179 55.7388 86.9787L55.7231 86.9631Z"
    fill="#8E8E93" />
  <path
    d="M42.171 71.7771C42.1239 70.5534 42.3596 69.8004 42.7681 69.0788C42.8466 68.9533 42.8938 68.8435 43.0823 68.9533C44.6536 69.8475 45.9735 71.9183 45.3921 73.9577C45.2978 74.2557 45.1721 74.5538 45.0307 74.8205C44.9522 74.9774 44.8579 75.0087 44.7008 74.9303C43.1923 74.2087 42.281 73.0792 42.171 71.7614V71.7771Z"
    fill="#8E8E93" />
  <path
    d="M45.5804 83.9154C43.192 83.8369 41.605 82.2838 41.5107 79.9307C41.5107 79.6169 41.5736 79.5071 41.9036 79.5228C43.8677 79.5699 45.7061 80.8876 46.2089 82.6447C46.256 82.7858 46.3031 82.9427 46.3031 83.0839C46.366 84.0095 46.4603 83.8683 45.5646 83.9154H45.5804Z"
    fill="#8E8E93" />
  <path
    d="M66.5083 75.463V73.4611C67.6476 73.4611 68.507 73.2853 69.0864 72.9337C69.6724 72.5756 70.0662 72.0581 70.2681 71.381H72.4849V86.0001H69.9849V75.463H66.5083ZM74.8677 78.7247C74.8677 77.2273 75.1216 75.9057 75.6294 74.7599C76.1372 73.6075 76.8599 72.7124 77.7974 72.0743C78.7349 71.4363 79.8188 71.1173 81.0493 71.1173C82.9634 71.1108 84.4705 71.8042 85.5708 73.1974C86.6776 74.5906 87.231 76.4331 87.231 78.7247C87.231 81.0034 86.6711 82.8295 85.5513 84.2032C84.4315 85.5769 82.9308 86.2638 81.0493 86.2638C79.1287 86.2638 77.6183 85.5802 76.5181 84.213C75.4178 82.8458 74.8677 81.0164 74.8677 78.7247ZM77.3872 78.7247C77.3872 80.4109 77.7062 81.713 78.3442 82.631C78.9823 83.5424 79.884 83.9982 81.0493 83.9982C82.2147 84.0112 83.1164 83.5587 83.7544 82.6407C84.3924 81.7163 84.7114 80.4109 84.7114 78.7247C84.7114 77.0125 84.3924 75.6909 83.7544 74.7599C83.1164 73.8289 82.2147 73.3699 81.0493 73.3829C79.884 73.396 78.9823 73.8615 78.3442 74.7794C77.7062 75.6974 77.3872 77.0125 77.3872 78.7247ZM88.9888 78.7247C88.9888 77.2273 89.2427 75.9057 89.7505 74.7599C90.2583 73.6075 90.981 72.7124 91.9185 72.0743C92.856 71.4363 93.9399 71.1173 95.1704 71.1173C97.0845 71.1108 98.5916 71.8042 99.6919 73.1974C100.799 74.5906 101.352 76.4331 101.352 78.7247C101.352 81.0034 100.792 82.8295 99.6724 84.2032C98.5526 85.5769 97.0519 86.2638 95.1704 86.2638C93.2498 86.2638 91.7394 85.5802 90.6392 84.213C89.5389 82.8458 88.9888 81.0164 88.9888 78.7247ZM91.5083 78.7247C91.5083 80.4109 91.8273 81.713 92.4653 82.631C93.1034 83.5424 94.005 83.9982 95.1704 83.9982C96.3358 84.0112 97.2375 83.5587 97.8755 82.6407C98.5135 81.7163 98.8325 80.4109 98.8325 78.7247C98.8325 77.0125 98.5135 75.6909 97.8755 74.7599C97.2375 73.8289 96.3358 73.3699 95.1704 73.3829C94.005 73.396 93.1034 73.8615 92.4653 74.7794C91.8273 75.6974 91.5083 77.0125 91.5083 78.7247ZM109.243 86.0001V71.381H111.684L116.42 83.0216L121.157 71.381H123.686V86.0001H121.157V81.4982C121.157 79.1674 121.206 77.5268 121.303 76.5763L117.622 86.0001H115.2L111.518 76.5958C111.648 77.4552 111.704 78.8419 111.684 80.756V86.0001H109.243ZM127.856 74.0958C127.446 74.0958 127.104 73.9559 126.831 73.6759C126.557 73.396 126.42 73.0509 126.42 72.6407C126.42 72.2371 126.557 71.8953 126.831 71.6154C127.104 71.3354 127.446 71.1954 127.856 71.1954C128.26 71.1954 128.605 71.3387 128.891 71.6251C129.178 71.9051 129.321 72.2436 129.321 72.6407C129.321 73.0509 129.178 73.396 128.891 73.6759C128.605 73.9559 128.26 74.0958 127.856 74.0958ZM126.635 76.1173H129.077V86.0001H126.635V76.1173ZM131.811 86.0001V71.1173H134.252V86.0001H131.811ZM137.084 86.0001V71.1173H139.526V86.0001H137.084ZM143.5 74.0958C143.09 74.0958 142.749 73.9559 142.475 73.6759C142.202 73.396 142.065 73.0509 142.065 72.6407C142.065 72.2371 142.202 71.8953 142.475 71.6154C142.749 71.3354 143.09 71.1954 143.5 71.1954C143.904 71.1954 144.249 71.3387 144.536 71.6251C144.822 71.9051 144.965 72.2436 144.965 72.6407C144.965 73.0509 144.822 73.396 144.536 73.6759C144.249 73.9559 143.904 74.0958 143.5 74.0958ZM142.28 76.1173H144.721V86.0001H142.28V76.1173ZM148.139 84.7892C147.195 83.8191 146.723 82.5691 146.723 81.0392C146.723 79.5092 147.195 78.2625 148.139 77.299C149.083 76.3289 150.323 75.8439 151.86 75.8439C153.396 75.8439 154.637 76.3289 155.581 77.299C156.525 78.2625 156.997 79.5092 156.997 81.0392C156.997 82.5691 156.525 83.8191 155.581 84.7892C154.637 85.7592 153.396 86.2443 151.86 86.2443C150.323 86.2443 149.083 85.7592 148.139 84.7892ZM149.184 81.0392C149.184 81.9246 149.428 82.6505 149.917 83.2169C150.411 83.7768 151.059 84.0568 151.86 84.0568C152.661 84.0568 153.305 83.7768 153.793 83.2169C154.288 82.6505 154.536 81.9246 154.536 81.0392C154.536 80.1473 154.292 79.4213 153.803 78.8615C153.315 78.3016 152.667 78.0216 151.86 78.0216C151.053 78.0216 150.405 78.3016 149.917 78.8615C149.428 79.4213 149.184 80.1473 149.184 81.0392ZM159.018 86.0001V76.1173H161.284L161.479 77.3966C161.798 76.8953 162.234 76.5079 162.788 76.2345C163.347 75.9611 163.966 75.8243 164.643 75.8243C165.893 75.8243 166.827 76.1889 167.446 76.9181C168.071 77.6407 168.383 78.6401 168.383 79.9161V86.0001H165.961V80.5021C165.961 80.0008 165.893 79.5776 165.756 79.2325C165.626 78.8875 165.447 78.6336 165.219 78.4708C164.998 78.3081 164.78 78.1974 164.565 78.1388C164.357 78.0737 164.129 78.0411 163.881 78.0411C163.588 78.0411 163.308 78.0835 163.042 78.1681C162.781 78.2527 162.527 78.3894 162.28 78.5782C162.032 78.767 161.834 79.0437 161.684 79.4083C161.534 79.7664 161.459 80.1896 161.459 80.6779V86.0001H159.018Z"
    fill="#8E8E93" />
  <path
    d="M194.476 75.9325C194.381 76.2457 194.303 76.5745 194.177 76.8877C193.657 78.2344 192.194 79.2053 190.715 79.3305C190.495 79.3462 190.495 79.2053 190.463 79.0643C190.227 77.9212 190.479 76.8877 191.187 75.9638C191.848 75.0869 192.729 74.4762 193.799 74.163C194.135 74.0691 194.334 74.1943 194.397 74.5388C194.413 74.6328 194.397 74.7267 194.476 74.805V75.9325Z"
    fill="#8E8E93" />
  <path
    d="M189.575 76.2607C189.638 79.1107 188.899 81.7727 187.608 84.2938C186.019 87.41 183.753 89.9937 181.172 92.327C180.968 92.5149 180.747 92.6871 180.543 92.8907C180.386 93.0629 180.291 93.016 180.165 92.8594C179.693 92.3113 179.677 92.3113 180.228 91.8259C182.526 89.7902 184.587 87.5509 186.161 84.9045C187.356 82.9158 188.206 80.7862 188.505 78.4686C188.773 76.4643 188.663 74.4912 187.907 72.5808C187.844 72.4399 187.844 72.3459 188.017 72.2833C188.065 72.2676 188.128 72.2363 188.175 72.205C188.573 72.0066 188.841 72.1267 188.977 72.5651C189.371 73.7552 189.544 74.9923 189.559 76.245L189.575 76.2607Z"
    fill="#8E8E93" />
  <path
    d="M187.628 80.1751C187.628 80.457 187.518 80.9738 187.314 81.4592C187.235 81.6628 187.141 81.7254 186.92 81.6471C184.576 80.8015 183.348 78.4839 184.497 76.0098C184.56 75.8689 184.607 75.7749 184.812 75.8689C186.291 76.5422 187.644 78.1864 187.628 80.1908V80.1751Z"
    fill="#8E8E93" />
  <path
    d="M185.48 83.8919C185.48 84.5652 185.323 85.1759 184.993 85.771C184.898 85.9432 184.804 85.9902 184.599 85.8963C182.412 84.8941 181.295 82.4826 182.711 80.0554C182.805 79.8988 182.868 79.8362 183.057 79.9458C184.395 80.6661 185.449 82.3573 185.48 83.8919Z"
    fill="#8E8E93" />
  <path
    d="M185.695 67.3677C185.695 66.616 185.852 65.8957 186.167 65.2067C186.261 65.0188 186.34 64.9405 186.56 65.0501C189.031 66.2715 189.503 68.8866 188.197 70.9693C188.071 71.1572 187.961 71.1415 187.803 71.0475C186.639 70.4212 185.978 69.4503 185.758 68.1663C185.711 67.9001 185.663 67.6339 185.679 67.3677H185.695Z"
    fill="#8E8E93" />
  <path
    d="M187.708 74.806C187.708 75.0879 187.645 75.4481 187.535 75.8082C187.488 75.9648 187.409 75.9961 187.252 75.9648C184.844 75.4794 183.224 73.3654 184.058 70.6877C184.105 70.5624 184.105 70.4215 184.325 70.4841C186.025 71.0009 187.74 72.6607 187.708 74.7904V74.806Z"
    fill="#8E8E93" />
  <path
    d="M185.706 92.0966C185.092 92.0966 184.369 91.8774 183.676 91.5016C183.472 91.3919 183.424 91.2823 183.535 91.0631C184.038 90.0453 184.856 89.3719 185.942 89.0587C187.091 88.7299 188.24 88.8082 189.341 89.2623C189.514 89.3406 189.624 89.3876 189.53 89.6381C188.901 91.1257 187.484 92.0966 185.706 92.0966Z"
    fill="#8E8E93" />
  <path
    d="M193.292 71.6855C193.214 73.0008 192.301 74.1283 190.822 74.8799C190.586 74.9895 190.476 74.9426 190.35 74.7233C189.657 73.3923 189.783 72.0926 190.491 70.8242C190.916 70.0569 191.53 69.4462 192.285 68.9921C192.474 68.8825 192.568 68.8825 192.694 69.086C193.072 69.7907 193.308 70.511 193.292 71.7011V71.6855Z"
    fill="#8E8E93" />
  <path
    d="M191.058 84.5472C191.656 84.5472 192.128 84.6098 192.584 84.7508C192.773 84.7978 192.852 84.876 192.789 85.0796C191.939 87.7573 189.39 88.5716 187.14 87.6007C186.951 87.5224 186.935 87.4285 186.998 87.2562C187.392 86.1288 188.147 85.3458 189.249 84.9074C189.862 84.6568 190.507 84.5315 191.058 84.5472Z"
    fill="#8E8E93" />
  <path
    d="M182.83 87.3944C182.83 88.3809 182.468 89.2735 181.728 90.0408C181.539 90.2444 181.398 90.26 181.177 90.0721C179.305 88.4122 179.258 85.7659 181.051 84.0434C181.256 83.8398 181.382 83.8398 181.571 84.059C182.373 84.9986 182.782 86.0947 182.83 87.3944Z"
    fill="#8E8E93" />
  <path
    d="M189.848 83.8733C189.077 83.8733 189.014 83.8107 189.156 83.0277C189.424 81.4618 190.415 80.4753 191.847 79.8646C192.398 79.6297 192.98 79.5201 193.578 79.4888C193.893 79.4731 193.971 79.5827 193.971 79.8802C193.908 82.2448 192.24 83.8577 189.848 83.8733Z"
    fill="#8E8E93" />
  <path
    d="M92.6763 101.419H95.6733V105.009H94.9438L94.8823 104.126C94.6919 104.425 94.4019 104.663 94.0122 104.842C93.6226 105.021 93.1948 105.11 92.729 105.11C91.8296 105.11 91.0986 104.804 90.5361 104.192C89.9766 103.576 89.6968 102.769 89.6968 101.77C89.6968 101.114 89.8257 100.53 90.0835 100.017C90.3442 99.5012 90.7148 99.0999 91.1953 98.8127C91.6758 98.5227 92.2295 98.3777 92.8564 98.3777C93.5713 98.3777 94.1763 98.5681 94.6714 98.949C95.1665 99.3269 95.4697 99.8293 95.5811 100.456H94.6846C94.5527 100.052 94.3242 99.7444 93.999 99.5334C93.6738 99.3196 93.2871 99.2126 92.8389 99.2126C92.1592 99.2126 91.6143 99.4485 91.2041 99.9202C90.7939 100.392 90.5889 101.014 90.5889 101.788C90.5889 102.558 90.7925 103.165 91.1997 103.607C91.6099 104.05 92.1445 104.271 92.8037 104.271C93.0059 104.271 93.2036 104.247 93.397 104.2C93.5933 104.154 93.7793 104.082 93.9551 103.985C94.1309 103.888 94.2847 103.773 94.4165 103.638C94.5513 103.5 94.6567 103.335 94.7329 103.141C94.812 102.945 94.8516 102.734 94.8516 102.509V102.192H92.6763V101.419ZM101.171 99.3313H98.0859V101.335H100.868V102.122H98.0859V104.165H101.171V105H97.2026V98.4919H101.171V99.3313ZM106.844 98.4919H107.728V105H106.844L103.518 99.9158V105H102.634V98.4919H103.518L106.844 103.559V98.4919ZM113.203 99.3313H110.118V101.335H112.9V102.122H110.118V104.165H113.203V105H109.235V98.4919H113.203V99.3313ZM114.482 105V98.4919H116.974C117.688 98.4919 118.241 98.6633 118.63 99.0061C119.02 99.3489 119.215 99.8293 119.215 100.448C119.215 100.907 119.104 101.299 118.881 101.621C118.658 101.94 118.351 102.161 117.958 102.284L119.224 105H118.226L117.066 102.416H115.365V105H114.482ZM115.365 101.625H116.982C117.404 101.625 117.725 101.521 117.945 101.313C118.167 101.102 118.279 100.817 118.279 100.456C118.279 100.093 118.166 99.8074 117.94 99.5994C117.718 99.3914 117.396 99.2874 116.974 99.2874H115.365V101.625ZM119.725 105L122.098 98.4919H123.069L125.455 105H124.528L123.943 103.379H121.219L120.621 105H119.725ZM121.478 102.632H123.693L122.713 99.8982C122.646 99.7195 122.606 99.5935 122.594 99.5203C122.591 99.5554 122.558 99.6814 122.493 99.8982L121.478 102.632ZM130.069 98.4919V99.3225H128.035V105H127.147V99.3225H125.104V98.4919H130.069ZM131.836 105H130.953V98.4919H131.836V105ZM139.175 101.744C139.175 102.388 139.044 102.967 138.784 103.48C138.523 103.99 138.154 104.389 137.676 104.679C137.199 104.967 136.652 105.11 136.037 105.11C135.428 105.11 134.886 104.967 134.411 104.679C133.937 104.392 133.569 103.994 133.308 103.484C133.05 102.971 132.921 102.391 132.921 101.744C132.921 101.099 133.05 100.522 133.308 100.012C133.569 99.4998 133.937 99.0999 134.411 98.8127C134.889 98.5227 135.434 98.3777 136.046 98.3777C136.658 98.3777 137.202 98.5227 137.676 98.8127C138.154 99.0999 138.523 99.4998 138.784 100.012C139.044 100.522 139.175 101.099 139.175 101.744ZM138.248 101.744C138.248 100.991 138.045 100.386 137.641 99.929C137.24 99.469 136.708 99.239 136.046 99.239C135.384 99.239 134.852 99.469 134.451 99.929C134.049 100.386 133.849 100.991 133.849 101.744C133.849 102.497 134.048 103.102 134.446 103.559C134.848 104.016 135.381 104.244 136.046 104.244C136.708 104.244 137.24 104.016 137.641 103.559C138.045 103.099 138.248 102.494 138.248 101.744ZM144.514 98.4919H145.397V105H144.514L141.188 99.9158V105H140.304V98.4919H141.188L144.514 103.559V98.4919Z"
    fill="#8E8E93" />
  <path
    d="M10.5543 7.00977C10.79 7.13527 11.0414 7.24508 11.2928 7.38627C11.387 7.43333 11.3242 7.52746 11.2928 7.6059C10.0672 10.9474 10.46 14.2104 11.7642 17.4107C13.0526 20.5639 15.111 23.1837 17.515 25.5369C18.0807 26.1016 18.6778 26.6193 19.2749 27.1527C19.4477 27.3096 19.4791 27.4037 19.322 27.592C18.8506 28.1254 18.8663 28.1254 18.3321 27.6547C15.928 25.5369 13.8068 23.1837 12.1884 20.407C10.68 17.8186 9.72149 15.0418 9.64292 12.0141C9.59578 10.3983 9.78434 8.79816 10.35 7.26077C10.4443 7.00977 10.4443 7.00977 10.5543 7.00977Z"
    fill="#8E8E93" />
  <path
    d="M15.1641 12.9241C15.2113 14.7439 13.8285 16.2185 12.2573 16.7206C12.0373 16.7833 11.9901 16.6735 11.9273 16.5323C11.4716 15.4655 11.4873 14.4145 11.9744 13.3791C12.4615 12.328 13.2472 11.5436 14.2685 10.9946C14.567 10.8377 14.6927 10.9161 14.8027 11.1985C15.0227 11.7633 15.1798 12.328 15.1641 12.9398V12.9241Z"
    fill="#8E8E93" />
  <path
    d="M13.5307 2.69768C13.4835 3.96838 12.9179 5.22339 11.5194 6.02346C11.2523 6.18034 11.1109 6.14896 10.9538 5.86658C9.68102 3.71737 10.3881 1.20735 12.6036 0.0778373C12.8707 -0.0633517 12.9807 -0.0162887 13.0907 0.250401C13.3578 0.877908 13.5464 1.69367 13.5307 2.6663V2.69768Z"
    fill="#8E8E93" />
  <path
    d="M15.3986 6.99711C15.43 9.17769 13.843 10.6523 12.0203 11.0131C11.8003 11.0602 11.7375 10.9347 11.6903 10.7621C11.4075 9.74245 11.5175 8.76981 12.036 7.85993C12.6645 6.76179 13.5916 6.00878 14.77 5.56953C15.0529 5.45971 15.1629 5.53815 15.2257 5.80484C15.3357 6.2441 15.4143 6.66766 15.3986 6.98142V6.99711Z"
    fill="#8E8E93" />
  <path
    d="M13.7339 18.9489C13.8439 17.2075 14.6924 15.9211 16.1537 14.9956C16.3265 14.8858 16.4051 14.9171 16.4993 15.0897C17.9292 17.5213 16.7979 19.9372 14.6138 20.9569C14.4253 21.051 14.3153 21.004 14.221 20.8157C13.9067 20.2353 13.7339 19.6234 13.7339 18.9646V18.9489Z"
    fill="#8E8E93" />
  <path
    d="M8.21574 19.579C9.61418 19.6575 10.9341 20.1281 11.814 21.4616C12.4425 22.4342 12.3325 22.7009 11.1855 22.9362C9.01709 23.3755 7.17869 22.3087 6.4559 20.2379C6.36163 19.9712 6.37734 19.83 6.6916 19.7516C7.14727 19.6418 7.60294 19.579 8.20003 19.5634L8.21574 19.579Z"
    fill="#8E8E93" />
  <path
    d="M8.8443 13.3488C8.8443 13.6155 8.79716 13.8665 8.75002 14.1175C8.7186 14.3371 8.62432 14.3999 8.40434 14.3842C5.93743 14.0704 4.39758 12.0153 4.83753 9.55237C4.9161 9.06606 4.94752 9.03468 5.41891 9.19156C7.14732 9.772 8.38863 10.8388 8.78145 12.7056C8.82859 12.9095 8.82859 13.1292 8.8443 13.3331V13.3488Z"
    fill="#8E8E93" />
  <path
    d="M11.8619 23.9217C13.4803 23.9531 14.8002 24.5179 15.6173 25.9925C15.8373 26.4004 15.8373 26.4004 15.4287 26.62C13.2289 27.7966 10.762 26.9808 9.74068 24.7532C9.63069 24.5022 9.67783 24.3924 9.92924 24.2982C10.5577 24.0629 11.202 23.906 11.8776 23.9217H11.8619Z"
    fill="#8E8E93" />
  <path
    d="M19.4848 21.9631C19.4376 23.2808 18.9034 24.3319 17.9606 25.1947C17.7721 25.3673 17.6621 25.2888 17.5364 25.1477C16.625 24.2221 16.2794 23.1239 16.4365 21.8532C16.5622 20.8022 16.9864 19.8923 17.6935 19.0922C17.8035 18.9667 17.8978 18.8412 18.0863 19.0295C18.9505 19.8452 19.4691 20.8179 19.5005 21.9787L19.4848 21.9631Z"
    fill="#8E8E93" />
  <path
    d="M5.93272 6.77708C5.88558 5.55345 6.12127 4.80044 6.5298 4.0788C6.60837 3.9533 6.6555 3.84349 6.84406 3.9533C8.41534 4.8475 9.73521 6.91827 9.15384 8.95767C9.05956 9.25573 8.93386 9.5538 8.79245 9.82049C8.71388 9.97736 8.6196 10.0087 8.46248 9.9303C6.95405 9.20867 6.0427 8.07916 5.93272 6.76139V6.77708Z"
    fill="#8E8E93" />
  <path
    d="M9.34208 18.9154C6.95373 18.8369 5.36674 17.2838 5.27246 14.9307C5.27246 14.6169 5.33531 14.5071 5.66528 14.5228C7.62938 14.5699 9.46778 15.8876 9.97059 17.6447C10.0177 17.7858 10.0649 17.9427 10.0649 18.0839C10.1277 19.0095 10.222 18.8683 9.32636 18.9154H9.34208Z"
    fill="#8E8E93" />
  <path
    d="M30.3579 10.463V8.46106C31.4972 8.46106 32.3566 8.28528 32.936 7.93372C33.522 7.57564 33.9159 7.05806 34.1177 6.38098H36.3345V21.0001H33.8345V10.463H30.3579ZM41.8813 20.8536C41.5623 21.1661 41.1815 21.3224 40.7388 21.3224C40.2961 21.3224 39.9152 21.1661 39.5962 20.8536C39.2772 20.5411 39.1177 20.17 39.1177 19.7404C39.1177 19.3042 39.2772 18.9266 39.5962 18.6075C39.9217 18.282 40.3026 18.1193 40.7388 18.1193C41.175 18.1193 41.5526 18.282 41.8716 18.6075C42.1971 18.9266 42.3599 19.3042 42.3599 19.7404C42.3599 20.17 42.2004 20.5411 41.8813 20.8536ZM50.0552 10.9806C51.533 10.9806 52.731 11.4689 53.6489 12.4454C54.5734 13.4155 55.0356 14.6199 55.0356 16.0587C55.0356 17.5822 54.5181 18.8289 53.4829 19.799C52.4543 20.7625 51.1457 21.2443 49.5571 21.2443C48.0402 21.2443 46.7837 20.7657 45.7876 19.8087C44.798 18.8452 44.3032 17.6147 44.3032 16.1173H46.8228C46.8228 16.9832 47.0832 17.6733 47.604 18.1876C48.1248 18.7019 48.7954 18.9591 49.6157 18.9591C50.397 18.9591 51.0708 18.6889 51.6372 18.1486C52.2101 17.6082 52.4966 16.9051 52.4966 16.0392C52.4966 15.1538 52.2199 14.4409 51.6665 13.9005C51.1131 13.3536 50.4295 13.0802 49.6157 13.0802C49.0688 13.0802 48.5708 13.1974 48.1216 13.4318C47.6789 13.6596 47.3241 13.9689 47.0571 14.3595L44.6938 14.0372L46.5396 6.38098H54.1567V8.84192H48.5024L47.7798 11.5568C48.3787 11.1726 49.1372 10.9806 50.0552 10.9806ZM57.272 21.0001V6.38098H59.7134L64.4497 18.0216L69.186 6.38098H71.7153V21.0001H69.186V16.4982C69.186 14.1674 69.2349 12.5268 69.3325 11.5763L65.6509 21.0001H63.229L59.5474 11.5958C59.6776 12.4552 59.7329 13.8419 59.7134 15.756V21.0001H57.272Z"
    fill="#8E8E93" />
  <path
    d="M98.2374 10.9325C98.143 11.2457 98.0643 11.5745 97.9384 11.8877C97.4191 13.2344 95.9557 14.2053 94.4766 14.3305C94.2563 14.3462 94.2563 14.2053 94.2248 14.0643C93.9887 12.9212 94.2405 11.8877 94.9486 10.9638C95.6095 10.0869 96.4907 9.47619 97.5607 9.16301C97.8964 9.06906 98.0958 9.19433 98.1587 9.53883C98.1744 9.63279 98.1587 9.72674 98.2374 9.80504V10.9325Z"
    fill="#8E8E93" />
  <path
    d="M93.3369 11.2607C93.3999 14.1107 92.6603 16.7727 91.37 19.2938C89.7807 22.41 87.5147 24.9937 84.9341 27.327C84.7295 27.5149 84.5092 27.6871 84.3047 27.8907C84.1473 28.0629 84.0529 28.016 83.927 27.8594C83.4549 27.3113 83.4392 27.3113 83.9899 26.8259C86.2873 24.7902 88.3487 22.5509 89.9223 19.9045C91.1182 17.9158 91.9679 15.7862 92.2669 13.4686C92.5344 11.4643 92.4243 9.49121 91.6689 7.5808C91.606 7.43986 91.606 7.34591 91.7791 7.28327C91.8263 7.26761 91.8892 7.23629 91.9365 7.20498C92.3351 7.00663 92.6026 7.12668 92.739 7.56514C93.1324 8.75523 93.3055 9.9923 93.3212 11.245L93.3369 11.2607Z"
    fill="#8E8E93" />
  <path
    d="M91.3902 15.1751C91.3902 15.457 91.28 15.9738 91.0754 16.4592C90.9968 16.6628 90.9024 16.7254 90.6821 16.6471C88.3374 15.8015 87.1101 13.4839 88.2588 11.0098C88.3217 10.8689 88.3689 10.7749 88.5735 10.8689C90.0526 11.5422 91.4059 13.1864 91.3902 15.1908V15.1751Z"
    fill="#8E8E93" />
  <path
    d="M89.2421 18.8919C89.2421 19.5652 89.0848 20.1759 88.7543 20.771C88.6599 20.9432 88.5655 20.9902 88.3609 20.8963C86.1737 19.8941 85.0564 17.4826 86.4726 15.0554C86.567 14.8988 86.63 14.8362 86.8188 14.9458C88.1564 15.6661 89.2106 17.3573 89.2421 18.8919Z"
    fill="#8E8E93" />
  <path
    d="M89.4566 2.36765C89.4566 1.61601 89.6139 0.895694 89.9286 0.206692C90.0231 0.0187827 90.1017 -0.059513 90.322 0.050101C92.7925 1.27151 93.2646 3.88659 91.9585 5.96925C91.8327 6.15716 91.7225 6.1415 91.5651 6.04755C90.4007 5.42118 89.7398 4.45032 89.5195 3.16627C89.4723 2.90006 89.4251 2.63386 89.4408 2.36765H89.4566Z"
    fill="#8E8E93" />
  <path
    d="M91.4701 9.80604C91.4701 10.0879 91.4071 10.4481 91.297 10.8082C91.2498 10.9648 91.1711 10.9961 91.0137 10.9648C88.6062 10.4794 86.9854 8.3654 87.8194 5.68769C87.8666 5.56242 87.8666 5.42149 88.0869 5.48412C89.7863 6.00087 91.5015 7.66074 91.4701 9.79038V9.80604Z"
    fill="#8E8E93" />
  <path
    d="M89.4679 27.0966C88.8542 27.0966 88.1303 26.8774 87.438 26.5016C87.2334 26.3919 87.1862 26.2823 87.2964 26.0631C87.7999 25.0453 88.6181 24.3719 89.7039 24.0587C90.8526 23.7299 92.0013 23.8082 93.1028 24.2623C93.2759 24.3406 93.3861 24.3876 93.2916 24.6381C92.6622 26.1257 91.246 27.0966 89.4679 27.0966Z"
    fill="#8E8E93" />
  <path
    d="M97.054 6.68547C96.9754 8.00083 96.0627 9.12829 94.5835 9.87993C94.3475 9.98954 94.2374 9.94256 94.1115 9.72334C93.4191 8.39231 93.545 7.0926 94.2531 5.82421C94.678 5.05692 95.2917 4.44621 96.047 3.99209C96.2358 3.88248 96.3302 3.88248 96.4561 4.08605C96.8337 4.79071 97.0698 5.51103 97.054 6.70112V6.68547Z"
    fill="#8E8E93" />
  <path
    d="M94.8198 19.5472C95.4178 19.5472 95.8899 19.6098 96.3462 19.7508C96.535 19.7978 96.6137 19.876 96.5508 20.0796C95.701 22.7573 93.1518 23.5716 90.9016 22.6007C90.7128 22.5224 90.6971 22.4285 90.76 22.2562C91.1534 21.1288 91.9087 20.3458 93.0102 19.9074C93.6239 19.6568 94.2691 19.5315 94.8198 19.5472Z"
    fill="#8E8E93" />
  <path
    d="M86.5913 22.3944C86.5913 23.3809 86.2294 24.2735 85.4899 25.0408C85.301 25.2444 85.1594 25.26 84.9391 25.0721C83.0666 23.4122 83.0193 20.7659 84.8132 19.0434C85.0178 18.8398 85.1437 18.8398 85.3325 19.059C86.135 19.9986 86.5441 21.0947 86.5913 22.3944Z"
    fill="#8E8E93" />
  <path
    d="M93.6102 18.8733C92.8391 18.8733 92.7762 18.8107 92.9178 18.0277C93.1853 16.4618 94.1767 15.4753 95.6086 14.8646C96.1593 14.6297 96.7416 14.5201 97.3395 14.4888C97.6542 14.4731 97.7329 14.5827 97.7329 14.8802C97.67 17.2448 96.002 18.8577 93.6102 18.8733Z"
    fill="#8E8E93" />
  <path
    d="M1.10352 40.0001V33.4918H1.96045L4.21045 38.963L6.45166 33.4918H7.33057V40.0001H6.45166V37.4249C6.45166 36.4962 6.46924 35.7858 6.50439 35.2936L4.63232 40.0001H3.78418L1.90332 35.3112C1.94141 35.5865 1.96045 36.2223 1.96045 37.2184V40.0001H1.10352ZM14.7134 36.7438C14.7134 37.3883 14.583 37.9669 14.3223 38.4796C14.0615 38.9894 13.6924 39.3893 13.2148 39.6793C12.7373 39.9664 12.1909 40.11 11.5757 40.11C10.9663 40.11 10.4243 39.9664 9.94971 39.6793C9.4751 39.3922 9.10742 38.9938 8.84668 38.484C8.58887 37.9713 8.45996 37.3912 8.45996 36.7438C8.45996 36.0992 8.58887 35.5221 8.84668 35.0123C9.10742 34.4996 9.4751 34.0997 9.94971 33.8126C10.4272 33.5226 10.9722 33.3776 11.5845 33.3776C12.1968 33.3776 12.7402 33.5226 13.2148 33.8126C13.6924 34.0997 14.0615 34.4996 14.3223 35.0123C14.583 35.5221 14.7134 36.0992 14.7134 36.7438ZM13.7861 36.7438C13.7861 35.9908 13.584 35.3859 13.1797 34.9288C12.7783 34.4689 12.2466 34.2389 11.5845 34.2389C10.9224 34.2389 10.3906 34.4689 9.98926 34.9288C9.58789 35.3859 9.38721 35.9908 9.38721 36.7438C9.38721 37.4967 9.58643 38.1017 9.98486 38.5587C10.3862 39.0157 10.9194 39.2443 11.5845 39.2443C12.2466 39.2443 12.7783 39.0157 13.1797 38.5587C13.584 38.0988 13.7861 37.4938 13.7861 36.7438ZM20.0527 33.4918H20.936V40.0001H20.0527L16.7261 34.9156V40.0001H15.8428V33.4918H16.7261L20.0527 38.5587V33.4918ZM26.7808 33.4918V34.3224H24.7461V40.0001H23.8584V34.3224H21.8149V33.4918H26.7808ZM27.6641 40.0001V33.4918H28.5474V36.3087L31.7246 36.3175V33.4918H32.6123V40.0001H31.7246V37.1041H28.5474V40.0001H27.6641ZM34.981 39.2091H37.6353V40.0001H34.0889V33.4918H34.981V39.2091ZM37.3232 33.4918H38.3516L39.793 36.0934C39.8545 36.2018 39.9263 36.3453 40.0083 36.524C40.0728 36.3717 40.1445 36.2281 40.2236 36.0934L41.665 33.4918H42.6538L40.4478 37.3546V40.0001H39.5557V37.3546L37.3232 33.4918ZM48.1162 33.4918C48.5879 33.4918 49.0229 33.5724 49.4214 33.7335C49.8228 33.8917 50.1626 34.1129 50.4409 34.3971C50.7222 34.6813 50.9419 35.0255 51.1001 35.4298C51.2583 35.8341 51.3374 36.275 51.3374 36.7526C51.3374 37.7194 51.04 38.5031 50.4453 39.1036C49.8535 39.7013 49.0771 40.0001 48.1162 40.0001H45.9629V33.4918H48.1162ZM48.0503 39.1827C48.7651 39.1827 49.3364 38.9601 49.7642 38.5148C50.1948 38.0695 50.4102 37.4821 50.4102 36.7526C50.4102 36.026 50.1934 35.4401 49.7598 34.9948C49.3291 34.5465 48.7593 34.3224 48.0503 34.3224H46.8462V39.1827H48.0503ZM58.3247 36.7438C58.3247 37.3883 58.1943 37.9669 57.9336 38.4796C57.6729 38.9894 57.3037 39.3893 56.8262 39.6793C56.3486 39.9664 55.8022 40.11 55.187 40.11C54.5776 40.11 54.0356 39.9664 53.561 39.6793C53.0864 39.3922 52.7188 38.9938 52.458 38.484C52.2002 37.9713 52.0713 37.3912 52.0713 36.7438C52.0713 36.0992 52.2002 35.5221 52.458 35.0123C52.7188 34.4996 53.0864 34.0997 53.561 33.8126C54.0386 33.5226 54.5835 33.3776 55.1958 33.3776C55.8081 33.3776 56.3516 33.5226 56.8262 33.8126C57.3037 34.0997 57.6729 34.4996 57.9336 35.0123C58.1943 35.5221 58.3247 36.0992 58.3247 36.7438ZM57.3975 36.7438C57.3975 35.9908 57.1953 35.3859 56.791 34.9288C56.3896 34.4689 55.8579 34.2389 55.1958 34.2389C54.5337 34.2389 54.002 34.4689 53.6006 34.9288C53.1992 35.3859 52.9985 35.9908 52.9985 36.7438C52.9985 37.4967 53.1978 38.1017 53.5962 38.5587C53.9976 39.0157 54.5308 39.2443 55.1958 39.2443C55.8579 39.2443 56.3896 39.0157 56.791 38.5587C57.1953 38.0988 57.3975 37.4938 57.3975 36.7438ZM58.5972 33.4918H59.5508L60.6934 37.4733C60.8457 38.0651 60.9409 38.4576 60.979 38.651C61.0259 38.3844 61.1255 37.9918 61.2778 37.4733L62.5127 33.4918H63.4751L64.6792 37.4733C64.8052 37.8746 64.9077 38.2672 64.9868 38.651C65.0659 38.2701 65.1641 37.8805 65.2812 37.4821L66.4326 33.4918H67.3687L65.4087 40.0001H64.5605L62.9873 35.0343L61.3965 40.0001H60.5396L58.5972 33.4918ZM72.4531 33.4918H73.3364V40.0001H72.4531L69.1265 34.9156V40.0001H68.2432V33.4918H69.1265L72.4531 38.5587V33.4918ZM75.7358 39.2091H78.3901V40.0001H74.8438V33.4918H75.7358V39.2091ZM84.9556 36.7438C84.9556 37.3883 84.8252 37.9669 84.5645 38.4796C84.3037 38.9894 83.9346 39.3893 83.457 39.6793C82.9795 39.9664 82.4331 40.11 81.8179 40.11C81.2085 40.11 80.6665 39.9664 80.1919 39.6793C79.7173 39.3922 79.3496 38.9938 79.0889 38.484C78.8311 37.9713 78.7021 37.3912 78.7021 36.7438C78.7021 36.0992 78.8311 35.5221 79.0889 35.0123C79.3496 34.4996 79.7173 34.0997 80.1919 33.8126C80.6694 33.5226 81.2144 33.3776 81.8267 33.3776C82.439 33.3776 82.9824 33.5226 83.457 33.8126C83.9346 34.0997 84.3037 34.4996 84.5645 35.0123C84.8252 35.5221 84.9556 36.0992 84.9556 36.7438ZM84.0283 36.7438C84.0283 35.9908 83.8262 35.3859 83.4219 34.9288C83.0205 34.4689 82.4888 34.2389 81.8267 34.2389C81.1646 34.2389 80.6328 34.4689 80.2314 34.9288C79.8301 35.3859 79.6294 35.9908 79.6294 36.7438C79.6294 37.4967 79.8286 38.1017 80.2271 38.5587C80.6284 39.0157 81.1616 39.2443 81.8267 39.2443C82.4888 39.2443 83.0205 39.0157 83.4219 38.5587C83.8262 38.0988 84.0283 37.4938 84.0283 36.7438ZM85.1226 40.0001L87.4956 33.4918H88.4668L90.853 40.0001H89.9258L89.3413 38.3785H86.6167L86.019 40.0001H85.1226ZM86.876 37.6315H89.0908L88.1108 34.8981C88.0435 34.7194 88.0039 34.5934 87.9922 34.5201C87.9893 34.5553 87.9556 34.6813 87.8911 34.8981L86.876 37.6315ZM93.8721 33.4918C94.3438 33.4918 94.7788 33.5724 95.1772 33.7335C95.5786 33.8917 95.9185 34.1129 96.1968 34.3971C96.478 34.6813 96.6978 35.0255 96.856 35.4298C97.0142 35.8341 97.0933 36.275 97.0933 36.7526C97.0933 37.7194 96.7959 38.5031 96.2012 39.1036C95.6094 39.7013 94.833 40.0001 93.8721 40.0001H91.7188V33.4918H93.8721ZM93.8062 39.1827C94.521 39.1827 95.0923 38.9601 95.52 38.5148C95.9507 38.0695 96.166 37.4821 96.166 36.7526C96.166 36.026 95.9492 35.4401 95.5156 34.9948C95.085 34.5465 94.5151 34.3224 93.8062 34.3224H92.6021V39.1827H93.8062ZM97.8359 35.2496C97.8359 34.693 98.0352 34.2418 98.4336 33.8961C98.835 33.5504 99.3652 33.3776 100.024 33.3776C100.634 33.3776 101.125 33.5431 101.497 33.8741C101.872 34.2052 102.08 34.6447 102.121 35.1925H101.237C101.211 34.8615 101.085 34.6066 100.859 34.4279C100.634 34.2491 100.339 34.1598 99.9761 34.1598C99.5894 34.1598 99.2817 34.2565 99.0532 34.4498C98.8247 34.6403 98.7104 34.8937 98.7104 35.2101C98.7104 35.6964 99.0093 36.0187 99.6069 36.1769L100.697 36.4625C101.221 36.5944 101.62 36.8141 101.892 37.1217C102.165 37.4264 102.301 37.7985 102.301 38.2379C102.301 38.8004 102.088 39.2531 101.664 39.5958C101.239 39.9386 100.679 40.11 99.9849 40.11C99.3433 40.11 98.8188 39.9459 98.4116 39.6178C98.0044 39.2897 97.7861 38.8502 97.7568 38.2994H98.6357C98.6445 38.61 98.7749 38.8575 99.0269 39.0421C99.2788 39.2238 99.6113 39.3146 100.024 39.3146C100.449 39.3146 100.788 39.2194 101.04 39.0289C101.292 38.8356 101.417 38.5807 101.417 38.2643C101.417 37.7721 101.117 37.4484 100.517 37.2931L99.4312 37.0031C98.8921 36.8566 98.4907 36.6339 98.2271 36.3351C97.9663 36.0333 97.8359 35.6715 97.8359 35.2496Z"
    fill="#8E8E93" />
  <path
    d="M150.054 7.00977C150.29 7.13527 150.541 7.24508 150.793 7.38627C150.887 7.43333 150.824 7.52746 150.793 7.6059C149.567 10.9474 149.96 14.2104 151.264 17.4107C152.553 20.5639 154.611 23.1837 157.015 25.5369C157.581 26.1016 158.178 26.6193 158.775 27.1527C158.948 27.3096 158.979 27.4037 158.822 27.592C158.351 28.1254 158.366 28.1254 157.832 27.6547C155.428 25.5369 153.307 23.1837 151.688 20.407C150.18 17.8186 149.221 15.0418 149.143 12.0141C149.096 10.3983 149.284 8.79816 149.85 7.26077C149.944 7.00977 149.944 7.00977 150.054 7.00977Z"
    fill="#8E8E93" />
  <path
    d="M154.664 12.9241C154.711 14.7439 153.329 16.2185 151.757 16.7206C151.537 16.7833 151.49 16.6735 151.427 16.5323C150.972 15.4655 150.987 14.4145 151.474 13.3791C151.962 12.328 152.747 11.5436 153.768 10.9946C154.067 10.8377 154.193 10.9161 154.303 11.1985C154.523 11.7633 154.68 12.328 154.664 12.9398V12.9241Z"
    fill="#8E8E93" />
  <path
    d="M153.031 2.69768C152.984 3.96838 152.418 5.22339 151.019 6.02346C150.752 6.18034 150.611 6.14896 150.454 5.86658C149.181 3.71737 149.888 1.20735 152.104 0.0778373C152.371 -0.0633517 152.481 -0.0162887 152.591 0.250401C152.858 0.877908 153.046 1.69367 153.031 2.6663V2.69768Z"
    fill="#8E8E93" />
  <path
    d="M154.899 6.99711C154.93 9.17769 153.343 10.6523 151.52 11.0131C151.3 11.0602 151.237 10.9347 151.19 10.7621C150.908 9.74245 151.017 8.76981 151.536 7.85993C152.165 6.76179 153.092 6.00878 154.27 5.56953C154.553 5.45971 154.663 5.53815 154.726 5.80484C154.836 6.2441 154.914 6.66766 154.899 6.98142V6.99711Z"
    fill="#8E8E93" />
  <path
    d="M153.234 18.9489C153.344 17.2075 154.192 15.9211 155.654 14.9956C155.826 14.8858 155.905 14.9171 155.999 15.0897C157.429 17.5213 156.298 19.9372 154.114 20.9569C153.925 21.051 153.815 21.004 153.721 20.8157C153.407 20.2353 153.234 19.6234 153.234 18.9646V18.9489Z"
    fill="#8E8E93" />
  <path
    d="M147.716 19.579C149.114 19.6575 150.434 20.1281 151.314 21.4616C151.942 22.4342 151.832 22.7009 150.685 22.9362C148.517 23.3755 146.679 22.3087 145.956 20.2379C145.862 19.9712 145.877 19.83 146.192 19.7516C146.647 19.6418 147.103 19.579 147.7 19.5634L147.716 19.579Z"
    fill="#8E8E93" />
  <path
    d="M148.344 13.3488C148.344 13.6155 148.297 13.8665 148.25 14.1175C148.219 14.3371 148.124 14.3999 147.904 14.3842C145.437 14.0704 143.898 12.0153 144.338 9.55237C144.416 9.06606 144.448 9.03468 144.919 9.19156C146.647 9.772 147.889 10.8388 148.281 12.7056C148.329 12.9095 148.329 13.1292 148.344 13.3331V13.3488Z"
    fill="#8E8E93" />
  <path
    d="M151.362 23.9217C152.98 23.9531 154.3 24.5179 155.117 25.9925C155.337 26.4004 155.337 26.4004 154.929 26.62C152.729 27.7966 150.262 26.9808 149.241 24.7532C149.131 24.5022 149.178 24.3924 149.429 24.2982C150.058 24.0629 150.702 23.906 151.378 23.9217H151.362Z"
    fill="#8E8E93" />
  <path
    d="M158.985 21.9631C158.938 23.2808 158.403 24.3319 157.461 25.1947C157.272 25.3673 157.162 25.2888 157.036 25.1477C156.125 24.2221 155.779 23.1239 155.936 21.8532C156.062 20.8022 156.486 19.8923 157.194 19.0922C157.304 18.9667 157.398 18.8412 157.586 19.0295C158.451 19.8452 158.969 20.8179 159 21.9787L158.985 21.9631Z"
    fill="#8E8E93" />
  <path
    d="M145.433 6.77708C145.386 5.55345 145.621 4.80044 146.03 4.0788C146.108 3.9533 146.156 3.84349 146.344 3.9533C147.915 4.8475 149.235 6.91827 148.654 8.95767C148.56 9.25573 148.434 9.5538 148.292 9.82049C148.214 9.97736 148.12 10.0087 147.962 9.9303C146.454 9.20867 145.543 8.07916 145.433 6.76139V6.77708Z"
    fill="#8E8E93" />
  <path
    d="M148.842 18.9154C146.454 18.8369 144.867 17.2838 144.772 14.9307C144.772 14.6169 144.835 14.5071 145.165 14.5228C147.129 14.5699 148.968 15.8876 149.471 17.6447C149.518 17.7858 149.565 17.9427 149.565 18.0839C149.628 19.0095 149.722 18.8683 148.826 18.9154H148.842Z"
    fill="#8E8E93" />
  <path
    d="M169.223 6.38098H180.122V8.65637C179.366 9.24882 178.68 9.91614 178.061 10.6583C177.449 11.394 176.951 12.1101 176.567 12.8068C176.183 13.4969 175.847 14.2325 175.561 15.0138C175.281 15.7885 175.073 16.4721 174.936 17.0646C174.799 17.6505 174.689 18.2527 174.604 18.8712C174.526 19.4832 174.48 19.9292 174.467 20.2091C174.454 20.4891 174.448 20.7527 174.448 21.0001H171.967C171.967 20.7592 171.971 20.5151 171.977 20.2677C171.99 20.0138 172.032 19.5874 172.104 18.9884C172.176 18.3894 172.273 17.81 172.397 17.2501C172.521 16.6837 172.713 16.0131 172.973 15.2384C173.24 14.4572 173.553 13.7182 173.911 13.0216C174.269 12.325 174.734 11.5861 175.307 10.8048C175.887 10.0236 176.534 9.30741 177.25 8.65637H169.223V6.38098ZM181.86 21.0001V6.38098H184.301L189.038 18.0216L193.774 6.38098H196.303V21.0001H193.774V16.4982C193.774 14.1674 193.823 12.5268 193.92 11.5763L190.239 21.0001H187.817L184.135 11.5958C184.265 12.4552 184.321 13.8419 184.301 15.756V21.0001H181.86Z"
    fill="#8E8E93" />
  <path
    d="M222.737 10.9325C222.643 11.2457 222.564 11.5745 222.438 11.8877C221.919 13.2344 220.456 14.2053 218.977 14.3305C218.756 14.3462 218.756 14.2053 218.725 14.0643C218.489 12.9212 218.741 11.8877 219.449 10.9638C220.11 10.0869 220.991 9.47619 222.061 9.16301C222.396 9.06906 222.596 9.19433 222.659 9.53883C222.674 9.63279 222.659 9.72674 222.737 9.80504V10.9325Z"
    fill="#8E8E93" />
  <path
    d="M217.837 11.2607C217.9 14.1107 217.16 16.7727 215.87 19.2938C214.281 22.41 212.015 24.9937 209.434 27.327C209.23 27.5149 209.009 27.6871 208.805 27.8907C208.647 28.0629 208.553 28.016 208.427 27.8594C207.955 27.3113 207.939 27.3113 208.49 26.8259C210.787 24.7902 212.849 22.5509 214.422 19.9045C215.618 17.9158 216.468 15.7862 216.767 13.4686C217.034 11.4643 216.924 9.49121 216.169 7.5808C216.106 7.43986 216.106 7.34591 216.279 7.28327C216.326 7.26761 216.389 7.23629 216.436 7.20498C216.835 7.00663 217.103 7.12668 217.239 7.56514C217.632 8.75523 217.805 9.9923 217.821 11.245L217.837 11.2607Z"
    fill="#8E8E93" />
  <path
    d="M215.89 15.1751C215.89 15.457 215.78 15.9738 215.575 16.4592C215.497 16.6628 215.402 16.7254 215.182 16.6471C212.837 15.8015 211.61 13.4839 212.759 11.0098C212.822 10.8689 212.869 10.7749 213.073 10.8689C214.553 11.5422 215.906 13.1864 215.89 15.1908V15.1751Z"
    fill="#8E8E93" />
  <path
    d="M213.742 18.8919C213.742 19.5652 213.585 20.1759 213.254 20.771C213.16 20.9432 213.065 20.9902 212.861 20.8963C210.674 19.8941 209.556 17.4826 210.973 15.0554C211.067 14.8988 211.13 14.8362 211.319 14.9458C212.656 15.6661 213.711 17.3573 213.742 18.8919Z"
    fill="#8E8E93" />
  <path
    d="M213.957 2.36765C213.957 1.61601 214.114 0.895694 214.429 0.206692C214.523 0.0187827 214.602 -0.059513 214.822 0.050101C217.293 1.27151 217.765 3.88659 216.459 5.96925C216.333 6.15716 216.223 6.1415 216.065 6.04755C214.901 5.42118 214.24 4.45032 214.02 3.16627C213.972 2.90006 213.925 2.63386 213.941 2.36765H213.957Z"
    fill="#8E8E93" />
  <path
    d="M215.97 9.80604C215.97 10.0879 215.907 10.4481 215.797 10.8082C215.75 10.9648 215.671 10.9961 215.514 10.9648C213.106 10.4794 211.485 8.3654 212.319 5.68769C212.367 5.56242 212.367 5.42149 212.587 5.48412C214.286 6.00087 216.002 7.66074 215.97 9.79038V9.80604Z"
    fill="#8E8E93" />
  <path
    d="M213.968 27.0966C213.354 27.0966 212.63 26.8774 211.938 26.5016C211.733 26.3919 211.686 26.2823 211.796 26.0631C212.3 25.0453 213.118 24.3719 214.204 24.0587C215.353 23.7299 216.501 23.8082 217.603 24.2623C217.776 24.3406 217.886 24.3876 217.792 24.6381C217.162 26.1257 215.746 27.0966 213.968 27.0966Z"
    fill="#8E8E93" />
  <path
    d="M221.554 6.68547C221.475 8.00083 220.563 9.12829 219.084 9.87993C218.848 9.98954 218.737 9.94256 218.611 9.72334C217.919 8.39231 218.045 7.0926 218.753 5.82421C219.178 5.05692 219.792 4.44621 220.547 3.99209C220.736 3.88248 220.83 3.88248 220.956 4.08605C221.334 4.79071 221.57 5.51103 221.554 6.70112V6.68547Z"
    fill="#8E8E93" />
  <path
    d="M219.32 19.5472C219.918 19.5472 220.39 19.6098 220.846 19.7508C221.035 19.7978 221.114 19.876 221.051 20.0796C220.201 22.7573 217.652 23.5716 215.402 22.6007C215.213 22.5224 215.197 22.4285 215.26 22.2562C215.653 21.1288 216.409 20.3458 217.51 19.9074C218.124 19.6568 218.769 19.5315 219.32 19.5472Z"
    fill="#8E8E93" />
  <path
    d="M211.091 22.3944C211.091 23.3809 210.729 24.2735 209.99 25.0408C209.801 25.2444 209.659 25.26 209.439 25.0721C207.567 23.4122 207.519 20.7659 209.313 19.0434C209.518 18.8398 209.644 18.8398 209.832 19.059C210.635 19.9986 211.044 21.0947 211.091 22.3944Z"
    fill="#8E8E93" />
  <path
    d="M218.11 18.8733C217.339 18.8733 217.276 18.8107 217.418 18.0277C217.685 16.4618 218.677 15.4753 220.109 14.8646C220.659 14.6297 221.242 14.5201 221.84 14.4888C222.154 14.4731 222.233 14.5827 222.233 14.8802C222.17 17.2448 220.502 18.8577 218.11 18.8733Z"
    fill="#8E8E93" />
  <path
    d="M145.224 33.4918V34.3224H143.189V40.0001H142.301V34.3224H140.258V33.4918H145.224ZM151.728 36.7438C151.728 37.3883 151.597 37.9669 151.336 38.4796C151.076 38.9894 150.707 39.3893 150.229 39.6793C149.751 39.9664 149.205 40.11 148.59 40.11C147.98 40.11 147.438 39.9664 146.964 39.6793C146.489 39.3922 146.122 38.9938 145.861 38.484C145.603 37.9713 145.474 37.3912 145.474 36.7438C145.474 36.0992 145.603 35.5221 145.861 35.0123C146.122 34.4996 146.489 34.0997 146.964 33.8126C147.441 33.5226 147.986 33.3776 148.599 33.3776C149.211 33.3776 149.754 33.5226 150.229 33.8126C150.707 34.0997 151.076 34.4996 151.336 35.0123C151.597 35.5221 151.728 36.0992 151.728 36.7438ZM150.8 36.7438C150.8 35.9908 150.598 35.3859 150.194 34.9288C149.792 34.4689 149.261 34.2389 148.599 34.2389C147.937 34.2389 147.405 34.4689 147.003 34.9288C146.602 35.3859 146.401 35.9908 146.401 36.7438C146.401 37.4967 146.601 38.1017 146.999 38.5587C147.4 39.0157 147.934 39.2443 148.599 39.2443C149.261 39.2443 149.792 39.0157 150.194 38.5587C150.598 38.0988 150.8 37.4938 150.8 36.7438ZM156.948 33.4918V34.3224H154.914V40.0001H154.026V34.3224H151.982V33.4918H156.948ZM156.597 40.0001L158.97 33.4918H159.941L162.327 40.0001H161.4L160.815 38.3785H158.091L157.493 40.0001H156.597ZM158.35 37.6315H160.565L159.585 34.8981C159.518 34.7194 159.478 34.5934 159.466 34.5201C159.463 34.5553 159.43 34.6813 159.365 34.8981L158.35 37.6315ZM164.085 39.2091H166.739V40.0001H163.193V33.4918H164.085V39.2091ZM172.333 33.4918C172.805 33.4918 173.24 33.5724 173.639 33.7335C174.04 33.8917 174.38 34.1129 174.658 34.3971C174.939 34.6813 175.159 35.0255 175.317 35.4298C175.476 35.8341 175.555 36.275 175.555 36.7526C175.555 37.7194 175.257 38.5031 174.663 39.1036C174.071 39.7013 173.294 40.0001 172.333 40.0001H170.18V33.4918H172.333ZM172.268 39.1827C172.982 39.1827 173.554 38.9601 173.981 38.5148C174.412 38.0695 174.627 37.4821 174.627 36.7526C174.627 36.026 174.411 35.4401 173.977 34.9948C173.546 34.5465 172.977 34.3224 172.268 34.3224H171.063V39.1827H172.268ZM182.542 36.7438C182.542 37.3883 182.412 37.9669 182.151 38.4796C181.89 38.9894 181.521 39.3893 181.043 39.6793C180.566 39.9664 180.02 40.11 179.404 40.11C178.795 40.11 178.253 39.9664 177.778 39.6793C177.304 39.3922 176.936 38.9938 176.675 38.484C176.417 37.9713 176.289 37.3912 176.289 36.7438C176.289 36.0992 176.417 35.5221 176.675 35.0123C176.936 34.4996 177.304 34.0997 177.778 33.8126C178.256 33.5226 178.801 33.3776 179.413 33.3776C180.025 33.3776 180.569 33.5226 181.043 33.8126C181.521 34.0997 181.89 34.4996 182.151 35.0123C182.412 35.5221 182.542 36.0992 182.542 36.7438ZM181.615 36.7438C181.615 35.9908 181.413 35.3859 181.008 34.9288C180.607 34.4689 180.075 34.2389 179.413 34.2389C178.751 34.2389 178.219 34.4689 177.818 34.9288C177.417 35.3859 177.216 35.9908 177.216 36.7438C177.216 37.4967 177.415 38.1017 177.813 38.5587C178.215 39.0157 178.748 39.2443 179.413 39.2443C180.075 39.2443 180.607 39.0157 181.008 38.5587C181.413 38.0988 181.615 37.4938 181.615 36.7438ZM182.814 33.4918H183.768L184.911 37.4733C185.063 38.0651 185.158 38.4576 185.196 38.651C185.243 38.3844 185.343 37.9918 185.495 37.4733L186.73 33.4918H187.692L188.896 37.4733C189.022 37.8746 189.125 38.2672 189.204 38.651C189.283 38.2701 189.381 37.8805 189.499 37.4821L190.65 33.4918H191.586L189.626 40.0001H188.778L187.205 35.0343L185.614 40.0001H184.757L182.814 33.4918ZM196.67 33.4918H197.554V40.0001H196.67L193.344 34.9156V40.0001H192.46V33.4918H193.344L196.67 38.5587V33.4918ZM199.953 39.2091H202.607V40.0001H199.061V33.4918H199.953V39.2091ZM209.173 36.7438C209.173 37.3883 209.042 37.9669 208.782 38.4796C208.521 38.9894 208.152 39.3893 207.674 39.6793C207.197 39.9664 206.65 40.11 206.035 40.11C205.426 40.11 204.884 39.9664 204.409 39.6793C203.935 39.3922 203.567 38.9938 203.306 38.484C203.048 37.9713 202.919 37.3912 202.919 36.7438C202.919 36.0992 203.048 35.5221 203.306 35.0123C203.567 34.4996 203.935 34.0997 204.409 33.8126C204.887 33.5226 205.432 33.3776 206.044 33.3776C206.656 33.3776 207.2 33.5226 207.674 33.8126C208.152 34.0997 208.521 34.4996 208.782 35.0123C209.042 35.5221 209.173 36.0992 209.173 36.7438ZM208.246 36.7438C208.246 35.9908 208.043 35.3859 207.639 34.9288C207.238 34.4689 206.706 34.2389 206.044 34.2389C205.382 34.2389 204.85 34.4689 204.449 34.9288C204.047 35.3859 203.847 35.9908 203.847 36.7438C203.847 37.4967 204.046 38.1017 204.444 38.5587C204.846 39.0157 205.379 39.2443 206.044 39.2443C206.706 39.2443 207.238 39.0157 207.639 38.5587C208.043 38.0988 208.246 37.4938 208.246 36.7438ZM209.34 40.0001L211.713 33.4918H212.684L215.07 40.0001H214.143L213.559 38.3785H210.834L210.236 40.0001H209.34ZM211.093 37.6315H213.308L212.328 34.8981C212.261 34.7194 212.221 34.5934 212.209 34.5201C212.207 34.5553 212.173 34.6813 212.108 34.8981L211.093 37.6315ZM218.089 33.4918C218.561 33.4918 218.996 33.5724 219.395 33.7335C219.796 33.8917 220.136 34.1129 220.414 34.3971C220.695 34.6813 220.915 35.0255 221.073 35.4298C221.231 35.8341 221.311 36.275 221.311 36.7526C221.311 37.7194 221.013 38.5031 220.418 39.1036C219.827 39.7013 219.05 40.0001 218.089 40.0001H215.936V33.4918H218.089ZM218.023 39.1827C218.738 39.1827 219.31 38.9601 219.737 38.5148C220.168 38.0695 220.383 37.4821 220.383 36.7526C220.383 36.026 220.167 35.4401 219.733 34.9948C219.302 34.5465 218.732 34.3224 218.023 34.3224H216.819V39.1827H218.023ZM222.053 35.2496C222.053 34.693 222.252 34.2418 222.651 33.8961C223.052 33.5504 223.583 33.3776 224.242 33.3776C224.851 33.3776 225.342 33.5431 225.714 33.8741C226.089 34.2052 226.297 34.6447 226.338 35.1925H225.455C225.428 34.8615 225.302 34.6066 225.077 34.4279C224.851 34.2491 224.557 34.1598 224.193 34.1598C223.807 34.1598 223.499 34.2565 223.271 34.4498C223.042 34.6403 222.928 34.8937 222.928 35.2101C222.928 35.6964 223.227 36.0187 223.824 36.1769L224.914 36.4625C225.438 36.5944 225.837 36.8141 226.109 37.1217C226.382 37.4264 226.518 37.7985 226.518 38.2379C226.518 38.8004 226.306 39.2531 225.881 39.5958C225.456 39.9386 224.896 40.11 224.202 40.11C223.561 40.11 223.036 39.9459 222.629 39.6178C222.222 39.2897 222.003 38.8502 221.974 38.2994H222.853C222.862 38.61 222.992 38.8575 223.244 39.0421C223.496 39.2238 223.829 39.3146 224.242 39.3146C224.667 39.3146 225.005 39.2194 225.257 39.0289C225.509 38.8356 225.635 38.5807 225.635 38.2643C225.635 37.7721 225.334 37.4484 224.734 37.2931L223.648 37.0031C223.109 36.8566 222.708 36.6339 222.444 36.3351C222.184 36.0333 222.053 35.6715 222.053 35.2496Z"
    fill="#8E8E93" />
</svg>