<svg width="147" height="52" viewBox="0 0 147 52" fill="none" xmlns="http://www.w3.org/2000/svg">
  <g clip-path="url(#clip0_2017_19574)">
    <rect width="147" height="52" rx="26" fill="black" fill-opacity="0.15" />
    <g opacity="0.65" filter="url(#filter0_f_2017_19574)">
      <circle cx="54" cy="55" r="38" fill="url(#paint0_linear_2017_19574)" />
    </g>
    <g opacity="0.65" filter="url(#filter1_f_2017_19574)">
      <circle cx="93" cy="55" r="38" fill="url(#paint1_linear_2017_19574)" />
    </g>
    <path
      d="M34.9216 19.86C36.2683 18.4467 38.015 17.74 40.1616 17.74C42.3483 17.74 44.1416 18.4933 45.5416 20L43.5816 21.94C42.7283 20.9267 41.6216 20.42 40.2616 20.42C40.235 20.42 40.2016 20.42 40.1616 20.42C38.9083 20.42 37.8683 20.84 37.0416 21.68C36.215 22.52 35.8016 23.6067 35.8016 24.94C35.8016 26.26 36.2016 27.36 37.0016 28.24C37.815 29.12 38.8483 29.56 40.1016 29.56C41.1816 29.56 42.075 29.28 42.7816 28.72C43.5016 28.1467 43.9483 27.38 44.1216 26.42H39.7616V23.94H48.0416V26.42H47.0016C46.8016 28.1133 46.0683 29.5067 44.8016 30.6C43.5483 31.6933 41.975 32.24 40.0816 32.24C37.9483 32.24 36.215 31.54 34.8816 30.14C33.5616 28.74 32.9016 27.0067 32.9016 24.94C32.9016 22.98 33.575 21.2867 34.9216 19.86ZM50.4526 23.76C51.3992 22.8267 52.6059 22.36 54.0726 22.36C55.5526 22.36 56.7592 22.84 57.6926 23.8C58.6259 24.7467 59.0926 25.9267 59.0926 27.34C59.0926 27.7133 59.0792 28.0067 59.0526 28.22H51.6726C51.8059 28.7667 52.0926 29.2067 52.5326 29.54C52.9859 29.86 53.5126 30.02 54.1126 30.02C54.5792 30.02 55.0259 29.92 55.4526 29.72C55.8792 29.5067 56.2126 29.24 56.4526 28.92L58.2926 30.24C57.8526 30.8533 57.2592 31.34 56.5126 31.7C55.7792 32.06 54.9659 32.24 54.0726 32.24C52.5792 32.24 51.3659 31.78 50.4326 30.86C49.4992 29.9267 49.0326 28.7533 49.0326 27.34C49.0326 25.8867 49.5059 24.6933 50.4526 23.76ZM51.6726 26.28H56.4526C56.3459 25.76 56.0726 25.34 55.6326 25.02C55.1926 24.6867 54.6726 24.52 54.0726 24.52C53.4726 24.52 52.9592 24.6867 52.5326 25.02C52.1059 25.34 51.8192 25.76 51.6726 26.28ZM63.163 32H60.663V22.6H68.163V32H65.663V24.88H63.163V32ZM71.1948 23.76C72.1414 22.8267 73.3481 22.36 74.8148 22.36C76.2948 22.36 77.5014 22.84 78.4348 23.8C79.3681 24.7467 79.8348 25.9267 79.8348 27.34C79.8348 27.7133 79.8214 28.0067 79.7948 28.22H72.4148C72.5481 28.7667 72.8348 29.2067 73.2748 29.54C73.7281 29.86 74.2548 30.02 74.8548 30.02C75.3214 30.02 75.7681 29.92 76.1948 29.72C76.6214 29.5067 76.9548 29.24 77.1948 28.92L79.0348 30.24C78.5948 30.8533 78.0014 31.34 77.2548 31.7C76.5214 32.06 75.7081 32.24 74.8148 32.24C73.3214 32.24 72.1081 31.78 71.1748 30.86C70.2414 29.9267 69.7748 28.7533 69.7748 27.34C69.7748 25.8867 70.2481 24.6933 71.1948 23.76ZM72.4148 26.28H77.1948C77.0881 25.76 76.8148 25.34 76.3748 25.02C75.9348 24.6867 75.4148 24.52 74.8148 24.52C74.2148 24.52 73.7014 24.6867 73.2748 25.02C72.8481 25.34 72.5614 25.76 72.4148 26.28ZM81.4052 22.6H86.8652V25.02H83.9052V32H81.4052V22.6ZM88.703 26.82C89.3297 26.2333 90.103 25.94 91.023 25.94C92.0364 25.94 92.8564 26.2867 93.483 26.98L93.243 24.86H88.723V22.6H95.543L96.543 32H94.063L93.903 30.56C93.623 31.0667 93.223 31.4733 92.703 31.78C92.1964 32.0733 91.6364 32.22 91.023 32.22C91.0097 32.22 90.9897 32.22 90.963 32.22C90.083 32.22 89.3297 31.9133 88.703 31.3C88.0764 30.6867 87.763 29.9333 87.763 29.04C87.763 28.16 88.0764 27.42 88.703 26.82ZM90.083 29C90.083 29.3067 90.183 29.56 90.383 29.76C90.5964 29.96 90.863 30.06 91.183 30.06C91.4897 30.06 91.743 29.96 91.943 29.76C92.1564 29.56 92.263 29.3067 92.263 29C92.263 28.7067 92.1564 28.46 91.943 28.26C91.743 28.0467 91.4897 27.94 91.183 27.94C90.863 27.94 90.5964 28.0467 90.383 28.26C90.183 28.46 90.083 28.7067 90.083 29ZM101.658 24.86V29.72H103.178V32.06H99.1584V24.86H97.5384V22.6H99.2584V17.92H101.658V22.6H103.178V24.86H101.658ZM105.531 23.76C106.477 22.8267 107.684 22.36 109.151 22.36C110.631 22.36 111.837 22.84 112.771 23.8C113.704 24.7467 114.171 25.9267 114.171 27.34C114.171 27.7133 114.157 28.0067 114.131 28.22H106.751C106.884 28.7667 107.171 29.2067 107.611 29.54C108.064 29.86 108.591 30.02 109.191 30.02C109.657 30.02 110.104 29.92 110.531 29.72C110.957 29.5067 111.291 29.24 111.531 28.92L113.371 30.24C112.931 30.8533 112.337 31.34 111.591 31.7C110.857 32.06 110.044 32.24 109.151 32.24C107.657 32.24 106.444 31.78 105.511 30.86C104.577 29.9267 104.111 28.7533 104.111 27.34C104.111 25.8867 104.584 24.6933 105.531 23.76ZM106.751 26.28H111.531C111.424 25.76 111.151 25.34 110.711 25.02C110.271 24.6867 109.751 24.52 109.151 24.52C108.551 24.52 108.037 24.6867 107.611 25.02C107.184 25.34 106.897 25.76 106.751 26.28Z"
      fill="white" />
  </g>
  <rect x="0.5" y="0.5" width="146" height="51" rx="25.5" stroke="url(#paint2_linear_2017_19574)"
    stroke-opacity="0.3" />
  <rect x="0.5" y="0.5" width="146" height="51" rx="25.5" stroke="url(#paint3_linear_2017_19574)"
    stroke-opacity="0.5" style="mix-blend-mode:plus-lighter" />
  <defs>
    <filter id="filter0_f_2017_19574" x="-25.4" y="-24.4" width="158.8" height="158.8"
      filterUnits="userSpaceOnUse" color-interpolation-filters="sRGB">
      <feFlood flood-opacity="0" result="BackgroundImageFix" />
      <feBlend mode="normal" in="SourceGraphic" in2="BackgroundImageFix" result="shape" />
      <feGaussianBlur stdDeviation="20.7" result="effect1_foregroundBlur_2017_19574" />
    </filter>
    <filter id="filter1_f_2017_19574" x="13.6" y="-24.4" width="158.8" height="158.8"
      filterUnits="userSpaceOnUse" color-interpolation-filters="sRGB">
      <feFlood flood-opacity="0" result="BackgroundImageFix" />
      <feBlend mode="normal" in="SourceGraphic" in2="BackgroundImageFix" result="shape" />
      <feGaussianBlur stdDeviation="20.7" result="effect1_foregroundBlur_2017_19574" />
    </filter>
    <linearGradient id="paint0_linear_2017_19574" x1="92" y1="55" x2="16" y2="55"
      gradientUnits="userSpaceOnUse">
      <stop offset="0.591346" stop-color="#2F9FC4" />
      <stop offset="1" stop-color="#194BAA" />
    </linearGradient>
    <linearGradient id="paint1_linear_2017_19574" x1="131" y1="55" x2="55" y2="55"
      gradientUnits="userSpaceOnUse">
      <stop offset="0.105769" stop-color="#DC3F90" />
      <stop offset="0.434728" stop-color="#F7C6A8" />
    </linearGradient>
    <linearGradient id="paint2_linear_2017_19574" x1="0" y1="26" x2="147" y2="26"
      gradientUnits="userSpaceOnUse">
      <stop stop-color="#2862F4" />
      <stop offset="0.201046" stop-color="#02B1E9" />
      <stop offset="0.768651" stop-color="#F7C6A8" />
      <stop offset="1" stop-color="#F1567B" />
    </linearGradient>
    <linearGradient id="paint3_linear_2017_19574" x1="0" y1="26" x2="147" y2="26"
      gradientUnits="userSpaceOnUse">
      <stop stop-color="white" stop-opacity="0.05" />
      <stop offset="0.5" stop-color="white" stop-opacity="0.5" />
      <stop offset="1" stop-color="white" stop-opacity="0.05" />
    </linearGradient>
    <clipPath id="clip0_2017_19574">
      <rect width="147" height="52" rx="26" fill="white" />
    </clipPath>
  </defs>
</svg>