<svg width="16" height="16" viewBox="0 0 16 16" fill="none" xmlns="http://www.w3.org/2000/svg">
<g clip-path="url(#clip0_4374_33510)">
<path fill-rule="evenodd" clip-rule="evenodd" d="M6.03932 7.44824C6.10932 7.44824 6.17645 7.47605 6.22595 7.52555C6.27545 7.57504 6.30325 7.64217 6.30325 7.71217C6.30325 7.78217 6.27545 7.8493 6.22595 7.8988C6.17645 7.9483 6.10932 7.97611 6.03932 7.97611C5.96932 7.97611 5.90219 7.9483 5.85269 7.8988C5.8032 7.8493 5.77539 7.78217 5.77539 7.71217C5.77539 7.64217 5.8032 7.57504 5.85269 7.52555C5.90219 7.47605 5.96932 7.44824 6.03932 7.44824Z" fill="white"/>
<path fill-rule="evenodd" clip-rule="evenodd" d="M4.90153 5.89615C4.93064 5.88839 4.95781 5.89809 4.98433 5.92461C5.11048 6.05399 5.23662 6.18208 5.36406 6.31016C5.37523 6.32073 5.38876 6.32849 5.40352 6.3328L5.9275 6.468C5.96373 6.47706 5.98572 6.49582 5.99348 6.52493C6.00189 6.55469 5.99219 6.58315 5.96567 6.60902L5.58012 6.98746C5.57476 6.9933 5.57019 6.99982 5.56654 7.00686C5.56235 7.01351 5.55909 7.02069 5.55683 7.02821C5.51155 7.20287 5.46627 7.37753 5.42228 7.55219C5.41322 7.58777 5.39382 7.61041 5.36406 7.61817C5.33495 7.62594 5.30713 7.61623 5.28126 7.58906C5.15511 7.46033 5.02897 7.33225 4.90153 7.20416C4.89006 7.19366 4.87634 7.18592 4.86142 7.18152L4.33744 7.04632C4.30122 7.03727 4.27922 7.01786 4.27081 6.9881C4.2637 6.95964 4.2734 6.93182 4.29992 6.9053C4.4293 6.7798 4.55739 6.65301 4.68547 6.52687C4.69119 6.52118 4.696 6.51463 4.6997 6.50746C4.70361 6.50099 4.70666 6.49403 4.70876 6.48676C4.75404 6.3121 4.79932 6.13744 4.84331 5.96278C4.85237 5.92655 4.87177 5.90456 4.90153 5.89615Z" fill="white"/>
<path fill-rule="evenodd" clip-rule="evenodd" d="M10.4755 6.25944C10.5113 6.25766 10.5471 6.26319 10.5807 6.27567C10.6143 6.28815 10.645 6.30732 10.671 6.33204C10.697 6.35675 10.7176 6.38648 10.7318 6.41943C10.7459 6.45237 10.7532 6.48785 10.7532 6.52369C10.7532 6.55954 10.7459 6.59501 10.7318 6.62796C10.7176 6.6609 10.697 6.69063 10.671 6.71534C10.645 6.74006 10.6143 6.75924 10.5807 6.77172C10.5471 6.7842 10.5113 6.78972 10.4755 6.78795C10.4053 6.78795 10.338 6.76007 10.2884 6.71045C10.2388 6.66084 10.2109 6.59354 10.2109 6.52337C10.2109 6.4532 10.2388 6.3859 10.2884 6.33628C10.338 6.28666 10.4053 6.25879 10.4755 6.25879V6.25944Z" fill="white"/>
<path fill-rule="evenodd" clip-rule="evenodd" d="M9.33937 4.7106C9.36913 4.70284 9.39759 4.71254 9.42346 4.73907C9.54896 4.86844 9.67446 4.99653 9.8006 5.12461C9.81197 5.1354 9.8257 5.14338 9.84071 5.1479L10.3628 5.28375C10.399 5.29281 10.421 5.31286 10.4294 5.34197C10.4371 5.37108 10.4274 5.3989 10.4003 5.42477L10.0147 5.80191C10.0042 5.81326 9.99631 5.82671 9.99144 5.84137L9.85559 6.36406C9.84653 6.40028 9.82713 6.42228 9.79737 6.43069C9.76826 6.4378 9.74044 6.4281 9.71457 6.40158C9.58907 6.2722 9.46292 6.14411 9.33743 6.01603C9.33174 6.01031 9.32519 6.0055 9.31802 6.0018C9.3116 5.99779 9.30463 5.99474 9.29732 5.99274L8.77463 5.85689C8.73841 5.84784 8.71641 5.82843 8.70865 5.79867C8.70089 5.76956 8.71059 5.74239 8.73711 5.71587C8.86649 5.59038 8.99458 5.46488 9.12266 5.33873C9.12839 5.33305 9.13319 5.3265 9.13689 5.31933C9.14104 5.31289 9.1443 5.30593 9.14659 5.29863L9.28244 4.77723C9.2915 4.74036 9.31026 4.71901 9.33937 4.7106Z" fill="white"/>
<path fill-rule="evenodd" clip-rule="evenodd" d="M5.46784 0.532813C6.09098 0.276633 6.76931 0.184214 7.43827 0.264353C8.30058 0.363327 9.06908 0.730115 9.74379 1.36407C9.75285 1.37272 9.76392 1.37898 9.77601 1.38225C9.7881 1.38553 9.80082 1.38573 9.81301 1.38283C10.7245 1.159 11.5997 1.23792 12.4407 1.61959L12.4801 1.63835L12.5804 1.68816C13.4582 2.14293 14.0877 2.83251 14.468 3.75627C14.6479 4.19616 14.7384 4.65416 14.7404 5.13221C14.7531 5.4877 14.7139 5.84314 14.6239 6.18729C14.6194 6.20473 14.6195 6.22302 14.624 6.24045C14.6285 6.25788 14.6374 6.27387 14.6498 6.28691C15.1583 6.80272 15.5118 7.45091 15.67 8.15772C15.9197 9.38747 15.6648 10.4956 14.9053 11.4827L14.7883 11.6251C14.2853 12.2005 13.6252 12.6165 12.889 12.8218C12.873 12.8266 12.8585 12.8351 12.8465 12.8467C12.8346 12.8583 12.8256 12.8726 12.8204 12.8884C12.6555 13.3646 12.4892 13.7708 12.1813 14.1771C11.4057 15.2004 10.2652 15.7697 8.98046 15.7619C7.95643 15.7574 7.04884 15.3829 6.25705 14.6389C6.24509 14.6279 6.2304 14.6202 6.21448 14.6166C6.19856 14.6131 6.182 14.6139 6.16648 14.6189C5.83139 14.7269 5.49371 14.7424 5.12822 14.7386C4.54556 14.7338 3.97166 14.5962 3.45018 14.3362C2.90413 14.0654 2.42878 13.6709 2.06195 13.1841C1.93063 13.0094 1.80061 12.8464 1.70487 12.653C1.57395 12.3863 1.467 12.1086 1.3853 11.823C1.21318 11.1738 1.20939 10.4914 1.37431 9.84029C1.37948 9.82489 1.38103 9.80851 1.37884 9.79242C1.37581 9.77663 1.36762 9.76229 1.35555 9.75166C0.956724 9.34837 0.651894 8.86197 0.462837 8.32721C0.337519 7.99778 0.264824 7.65068 0.247422 7.29865C0.216232 6.83583 0.257262 6.37098 0.369038 5.92077C0.660139 4.96014 1.21582 4.20651 2.03672 3.66053C2.21915 3.53892 2.39187 3.44447 2.55424 3.37655C2.73633 3.30091 2.92249 3.23547 3.11186 3.18054C3.12521 3.17664 3.13737 3.16944 3.1472 3.15961C3.15704 3.14977 3.16424 3.13761 3.16814 3.12426C3.30922 2.61596 3.5522 2.14167 3.88231 1.73021C4.32219 1.18359 4.8507 0.784454 5.46784 0.532813ZM6.09209 5.47959C5.34558 4.94914 4.32607 5.21243 3.95023 6.04562C3.75552 6.47645 3.71735 6.93057 3.83508 7.40798L3.92888 7.78705L4.09707 8.4016C4.165 8.7464 4.29761 9.06143 4.49297 9.34736L4.51238 9.37517C4.61588 9.49744 4.72909 9.60935 4.85135 9.71026C5.74794 10.4471 6.96992 9.95544 7.2138 8.85443L7.24614 8.71664L7.25391 8.66489C7.29272 8.40613 7.28108 8.15255 7.21962 7.90479C7.1115 7.46582 6.99373 7.02928 6.86642 6.59548C6.72604 6.11807 6.46793 5.74611 6.09209 5.47959ZM10.6876 4.41481C10.13 3.896 9.27027 3.87724 8.71653 4.39799C8.50047 4.60111 8.35039 4.8741 8.26564 5.21631C8.1814 5.56383 8.1814 5.92645 8.26564 6.27398L8.2747 6.30891L8.31028 6.42535C8.39243 6.69704 8.46877 6.96486 8.53863 7.22814C8.61108 7.50178 8.6693 7.68485 8.71329 7.778C9.08461 8.55815 9.89064 9.11965 10.7685 8.76257C11.5842 8.43007 11.83 7.46232 11.645 6.67958C11.6172 6.5612 11.5868 6.44346 11.5544 6.32637C11.4702 5.98505 11.3779 5.64577 11.2776 5.30881C11.1728 4.98019 10.9761 4.68262 10.6876 4.41481Z" fill="white"/>
</g>
<defs>
<clipPath id="clip0_4374_33510">
<rect width="16" height="16" fill="white"/>
</clipPath>
</defs>
</svg>
